<svg xmlns="http://www.w3.org/2000/svg" version="1.0" width="500.000000pt" height="500.000000pt" viewBox="0 0 500.000000 500.000000" preserveAspectRatio="xMidYMid meet">

<g transform="translate(0.000000,500.000000) scale(0.100000,-0.100000)" fill="#ffffff" stroke="none">
<path d="M2720 4361 c-58 -4 -114 -13 -125 -20 -18 -11 -16 -12 17 -7 46 6 164 -11 198 -29 37 -19 54 -42 99 -131 66 -133 67 -205 4 -275 -20 -23 -63 -54 -96 -71 l-59 -29 -150 12 c-169 14 -249 5 -353 -38 -74 -31 -114 -64 -183 -150 -140 -175 -179 -364 -93 -447 20 -19 44 -28 95 -35 88 -13 110 -32 110 -98 -1 -145 -41 -183 -215 -203 -36 -4 -110 -22 -164 -40 -188 -62 -340 -193 -526 -451 -117 -161 -161 -321 -160 -581 0 -167 13 -259 45 -338 32 -78 171 -285 236 -351 220 -222 430 -347 750 -447 l115 -36 230 0 c239 -1 261 2 415 49 262 81 466 201 676 397 52 50 72 79 147 225 118 231 133 288 130 502 -4 292 -43 407 -228 676 -132 191 -197 247 -349 306 -119 46 -119 45 -111 159 8 111 -1 144 -61 209 -52 58 -115 92 -192 105 -94 16 -104 44 -45 134 36 56 104 89 198 98 167 15 264 111 280 277 13 136 -38 315 -120 419 -50 65 -160 159 -219 190 -46 24 -138 30 -296 19z m289 -157 c-7 -8 -9 -18 -5 -22 4 -4 12 1 17 11 9 16 12 16 35 0 20 -12 22 -18 12 -25 -9 -7 -8 -8 5 -4 17 5 26 -1 88 -56 35 -32 99 -113 99 -126 0 -6 9 -27 21 -47 12 -19 19 -42 15 -50 -3 -8 -1 -17 4 -20 6 -4 10 -39 9 -78 0 -50 -3 -66 -9 -52 -7 17 -9 15 -9 -12 -1 -17 -4 -40 -7 -50 -5 -15 -4 -15 5 -3 14 19 14 11 0 -29 -6 -17 -18 -31 -26 -31 -8 0 -11 -5 -8 -11 4 -5 -1 -19 -11 -30 -14 -15 -20 -17 -32 -6 -9 6 -13 7 -9 1 10 -18 -30 -43 -63 -39 -17 2 -28 0 -25 -5 3 -5 13 -7 23 -4 15 5 15 5 1 -5 -9 -6 -50 -15 -90 -21 -96 -14 -107 -17 -150 -51 -47 -37 -89 -116 -89 -169 0 -47 12 -57 120 -96 82 -30 103 -42 94 -55 -3 -5 1 -6 9 -3 8 3 18 -6 25 -21 6 -14 16 -25 22 -25 13 0 48 -71 46 -95 -1 -11 -14 -40 -30 -65 -20 -30 -31 -62 -34 -96 -6 -69 17 -92 148 -149 147 -64 235 -120 308 -195 59 -60 148 -175 146 -189 0 -3 7 -14 16 -23 46 -50 98 -188 125 -333 10 -56 10 -86 0 -152 -6 -46 -14 -86 -17 -89 -3 -2 -9 12 -12 33 -19 103 -95 264 -178 375 -56 77 -155 171 -233 223 -227 150 -445 209 -775 208 -205 0 -297 -10 -475 -53 -207 -50 -392 -122 -510 -199 -85 -56 -195 -165 -254 -250 -47 -69 -123 -217 -137 -266 -8 -27 -9 -25 -12 24 -3 59 31 195 73 287 14 30 25 58 25 61 0 15 106 190 146 243 50 66 143 155 200 192 135 87 315 152 505 183 72 11 98 68 99 215 0 154 -34 210 -135 218 -30 2 -55 8 -55 13 0 5 -9 9 -20 9 -23 0 -26 10 -7 29 10 11 8 11 -10 2 -16 -8 -24 -8 -29 1 -4 7 -3 8 4 4 8 -5 12 2 12 21 -1 25 -2 26 -13 12 -11 -15 -13 -10 -15 32 -1 27 1 49 5 49 5 0 9 16 10 35 2 37 32 97 44 89 4 -2 11 1 15 7 5 8 3 9 -6 4 -9 -6 -10 -2 -5 16 11 34 95 130 108 122 6 -3 7 -1 3 5 -6 11 51 71 65 68 3 0 13 7 23 17 10 9 22 15 27 12 5 -4 9 -2 9 4 0 11 61 30 101 32 13 1 101 1 194 -1 164 -2 172 -1 217 23 25 14 49 23 52 20 3 -4 6 0 6 7 0 7 3 11 6 8 10 -10 92 82 116 130 20 42 23 60 21 164 -1 97 1 116 13 111 11 -4 12 -8 3 -19z m-151 -1709 c242 -34 452 -131 611 -280 128 -122 209 -250 273 -436 45 -131 44 -191 -6 -334 -89 -253 -174 -367 -417 -555 -146 -113 -337 -206 -499 -243 -171 -40 -434 -45 -579 -12 -153 36 -372 138 -556 259 -178 118 -238 180 -344 360 -120 203 -133 234 -139 329 -4 66 -1 88 23 155 34 95 85 198 138 277 60 90 191 213 282 267 182 105 488 198 735 221 102 10 385 5 478 -8z" fill="#ffffff"/>
<path d="M2065 3519 c-4 -6 -5 -12 -2 -15 2 -3 7 2 10 11 7 17 1 20 -8 4z" fill="#ffffff"/>
<path d="M2014 3420 c2 -16 20 -14 24 2 3 10 2 10 -6 -1 -7 -9 -11 -10 -15 -2 -4 7 -5 8 -3 1z" fill="#ffffff"/>
<path d="M2040 3216 c0 -2 9 -6 20 -9 11 -3 18 -1 14 4 -5 9 -34 13 -34 5z" fill="#ffffff"/>
<path d="M2990 3130 c0 -5 5 -10 11 -10 5 0 7 5 4 10 -3 6 -8 10 -11 10 -2 0 -4 -4 -4 -10z" fill="#ffffff"/>
<path d="M3070 3046 c0 -2 7 -7 16 -10 8 -3 12 -2 9 4 -6 10 -25 14 -25 6z" fill="#ffffff"/>
<path d="M2131 2120 c-76 -65 -85 -76 -73 -84 12 -7 173 124 166 135 -10 17 -23 9 -93 -51z" fill="#ffffff"/>
<path d="M2576 2141 c-3 -5 15 -26 40 -46 25 -20 43 -39 41 -42 -3 -2 -103 3 -223 11 -119 9 -219 14 -222 11 -12 -12 12 -18 90 -26 46 -4 84 -8 86 -8 2 -1 0 -6 -4 -12 -5 -8 -35 -10 -100 -5 -80 5 -94 4 -94 -9 0 -8 8 -15 18 -15 27 0 30 -6 23 -48 -6 -36 -8 -37 -71 -54 -91 -23 -93 -23 -86 8 5 19 3 25 -6 22 -33 -11 -93 -251 -105 -419 -6 -93 3 -146 17 -99 5 14 9 50 9 80 4 126 39 240 75 240 10 0 3 -246 -8 -257 -3 -4 -12 -1 -18 5 -7 7 -16 12 -20 12 -15 0 -8 -27 12 -45 13 -11 20 -31 20 -53 0 -26 3 -32 13 -25 16 14 45 8 68 -13 25 -23 15 -34 -32 -34 -21 0 -39 -4 -39 -10 0 -6 30 -10 70 -10 l69 0 106 -80 c103 -77 135 -94 135 -67 0 6 18 22 40 33 32 18 42 20 56 9 22 -16 14 -27 -44 -61 -33 -20 -67 -30 -115 -35 -64 -6 -86 -13 -75 -24 5 -5 227 10 306 21 25 3 40 9 36 15 -4 7 -25 8 -55 4 -29 -4 -49 -3 -49 3 0 5 50 40 110 77 109 67 135 92 84 79 -26 -7 -27 -5 -20 22 11 42 23 53 64 56 27 2 37 8 37 20 0 15 62 68 79 68 3 0 2 -40 -1 -90 -8 -126 11 -117 27 13 12 94 15 104 44 130 l31 28 -29 -6 c-28 -6 -28 -5 -23 27 14 78 29 249 23 255 -10 10 -26 -18 -26 -45 0 -13 -4 -22 -9 -20 -5 2 -66 55 -136 118 -121 109 -126 115 -99 118 16 2 34 8 40 13 6 5 19 7 28 3 56 -22 -37 83 -122 137 -49 31 -58 34 -66 20z m118 -120 c16 -4 31 -11 33 -16 3 -10 -295 -1 -304 9 -3 3 -2 9 1 15 7 10 219 4 270 -8z m-384 -39 c0 -10 -37 -32 -43 -25 -11 10 6 33 24 33 10 0 19 -3 19 -8z m246 -8 c57 -5 65 -9 120 -59 32 -30 53 -54 45 -55 -8 0 -34 19 -59 42 -50 46 -74 37 -28 -11 14 -15 26 -30 26 -33 0 -3 -59 -8 -132 -11 -127 -5 -133 -5 -181 20 -59 30 -56 33 56 58 42 9 77 21 77 26 0 11 7 12 -90 -7 -45 -8 -84 -13 -87 -10 -2 2 11 15 31 28 37 26 57 27 222 12z m-425 -137 c-16 -15 -25 -18 -28 -9 -8 21 -20 13 -27 -19 -6 -30 -32 -66 -42 -56 -3 3 1 25 9 48 13 39 19 45 58 55 54 13 59 10 30 -19z m173 22 c33 -15 24 -29 -20 -29 -27 0 -34 4 -34 20 0 23 17 25 54 9z m-86 -16 c-2 -10 -14 -20 -28 -22 -25 -3 -25 -3 -6 18 23 26 39 27 34 4z m543 -70 c32 -31 59 -60 59 -65 0 -5 -47 -62 -104 -126 -58 -64 -124 -142 -148 -173 -41 -54 -46 -57 -96 -63 -64 -8 -73 -2 -183 111 l-76 78 9 95 c5 52 13 111 17 130 7 35 8 35 71 43 63 7 275 23 353 26 34 1 46 -6 98 -56z m90 -14 c44 -39 79 -79 79 -89 0 -9 -10 -32 -23 -51 -13 -19 -47 -70 -77 -114 -29 -44 -55 -82 -57 -84 -2 -2 -5 -2 -8 1 -4 4 38 133 80 246 4 10 10 9 30 -4 49 -32 26 8 -52 87 -42 44 -71 79 -64 79 8 0 49 -32 92 -71z m-645 -16 c-3 -27 -8 -76 -12 -110 -3 -35 -9 -63 -13 -63 -5 0 -16 9 -26 20 -10 11 -25 20 -33 20 -10 0 -12 7 -9 23 3 12 11 52 18 90 l12 67 35 0 34 0 -6 -47z m539 -255 c-20 -62 -40 -116 -43 -119 -11 -11 -132 -16 -132 -6 0 11 203 247 208 242 2 -2 -13 -54 -33 -117z m-564 -32 c-2 -75 13 -89 23 -21 4 25 8 45 10 45 1 0 35 -31 75 -69 68 -64 72 -69 50 -74 -13 -4 -47 -7 -75 -7 -47 0 -57 4 -108 46 l-56 46 0 78 c0 42 3 80 7 84 4 4 23 -9 41 -28 33 -33 35 -37 33 -100z m702 17 c-49 -39 -55 -26 -16 34 l38 57 3 -34 c3 -28 -2 -39 -25 -57z m-291 -184 c-61 -39 -91 -46 -99 -23 -2 6 8 23 21 37 22 23 33 27 83 27 l58 0 -63 -41z m-104 19 c-3 -7 -11 -13 -18 -13 -7 0 -15 6 -17 13 -3 7 4 12 17 12 13 0 20 -5 18 -12z m-46 -34 c23 -20 45 -38 47 -40 5 -5 -23 -27 -56 -45 -20 -11 -30 -6 -100 46 -86 65 -84 73 14 74 45 1 57 -4 95 -35z m238 10 c0 -29 -20 -54 -61 -75 -32 -16 -44 -18 -55 -8 -22 18 -18 24 43 63 65 40 73 43 73 20z" fill="#ffffff"/>
<path d="M3014 1726 c3 -77 6 -165 6 -198 0 -37 4 -58 12 -58 15 0 3 369 -13 384 -9 8 -10 -25 -5 -128z" fill="#ffffff"/>
<path d="M3128 1623 c-5 -25 3 -63 13 -63 12 0 12 67 0 75 -5 3 -11 -3 -13 -12z" fill="#ffffff"/>
<path d="M1820 1479 c0 -29 200 -261 214 -248 8 8 -192 259 -205 259 -5 0 -9 -5 -9 -11z" fill="#ffffff"/>
</g>
</svg>